<svg width="204" height="204" viewBox="0 0 24 24" fill="none" xmlns="http://www.w3.org/2000/svg">
<g clip-path="url(#clip0_150_72)">
<path fill-rule="evenodd" clip-rule="evenodd" d="M12.25 3C12.25 1.48122 13.4812 0.25 15 0.25C16.5188 0.25 17.75 1.48122 17.75 3V8C17.75 9.51878 16.5188 10.75 15 10.75C13.4812 10.75 12.25 9.51878 12.25 8V3ZM15 1.75C14.3096 1.75 13.75 2.30964 13.75 3V8C13.75 8.69036 14.3096 9.25 15 9.25C15.6904 9.25 16.25 8.69036 16.25 8V3C16.25 2.30964 15.6904 1.75 15 1.75Z" fill="white"/>
<path fill-rule="evenodd" clip-rule="evenodd" d="M8 6.25C9.51878 6.25 10.75 7.48122 10.75 9C10.75 10.5188 9.51878 11.75 8 11.75L3 11.75C1.48122 11.75 0.25 10.5188 0.25 9C0.25 7.48122 1.48122 6.25 3 6.25L8 6.25ZM9.25 9C9.25 8.30964 8.69036 7.75 8 7.75L3 7.75C2.30964 7.75 1.75 8.30964 1.75 9C1.75 9.69036 2.30964 10.25 3 10.25L8 10.25C8.69036 10.25 9.25 9.69036 9.25 9Z" fill="white"/>
<path fill-rule="evenodd" clip-rule="evenodd" d="M21 12.25C22.5188 12.25 23.75 13.4812 23.75 15C23.75 16.5188 22.5188 17.75 21 17.75L16 17.75C14.4812 17.75 13.25 16.5188 13.25 15C13.25 13.4812 14.4812 12.25 16 12.25L21 12.25ZM22.25 15C22.25 14.3096 21.6904 13.75 21 13.75L16 13.75C15.3096 13.75 14.75 14.3096 14.75 15C14.75 15.6904 15.3096 16.25 16 16.25L21 16.25C21.6904 16.25 22.25 15.6904 22.25 15Z" fill="white"/>
<path fill-rule="evenodd" clip-rule="evenodd" d="M11.75 21C11.75 22.5188 10.5188 23.75 9 23.75C7.48122 23.75 6.25 22.5188 6.25 21L6.25 16C6.25 14.4812 7.48122 13.25 9 13.25C10.5188 13.25 11.75 14.4812 11.75 16L11.75 21ZM9 22.25C9.69036 22.25 10.25 21.6904 10.25 21L10.25 16C10.25 15.3096 9.69036 14.75 9 14.75C8.30964 14.75 7.75 15.3096 7.75 16L7.75 21C7.75 21.6904 8.30964 22.25 9 22.25Z" fill="white"/>
<path fill-rule="evenodd" clip-rule="evenodd" d="M8.5 1.75C8.08579 1.75 7.75 2.08579 7.75 2.5C7.75 2.91421 8.08579 3.25 8.5 3.25C8.91421 3.25 9.25 2.91421 9.25 2.5C9.25 2.08579 8.91421 1.75 8.5 1.75ZM6.25 2.5C6.25 1.25736 7.25736 0.25 8.5 0.25C9.74264 0.25 10.75 1.25736 10.75 2.5C10.75 3.74264 9.74264 4.75 8.5 4.75C7.25736 4.75 6.25 3.74264 6.25 2.5Z" fill="white"/>
<path fill-rule="evenodd" clip-rule="evenodd" d="M21.5 7.75C21.0858 7.75 20.75 8.08579 20.75 8.5C20.75 8.91421 21.0858 9.25 21.5 9.25C21.9142 9.25 22.25 8.91421 22.25 8.5C22.25 8.08579 21.9142 7.75 21.5 7.75ZM19.25 8.5C19.25 7.25736 20.2574 6.25 21.5 6.25C22.7426 6.25 23.75 7.25736 23.75 8.5C23.75 9.74264 22.7426 10.75 21.5 10.75C20.2574 10.75 19.25 9.74264 19.25 8.5Z" fill="white"/>
<path fill-rule="evenodd" clip-rule="evenodd" d="M15.5 20.75C15.0858 20.75 14.75 21.0858 14.75 21.5C14.75 21.9142 15.0858 22.25 15.5 22.25C15.9142 22.25 16.25 21.9142 16.25 21.5C16.25 21.0858 15.9142 20.75 15.5 20.75ZM13.25 21.5C13.25 20.2574 14.2574 19.25 15.5 19.25C16.7426 19.25 17.75 20.2574 17.75 21.5C17.75 22.7426 16.7426 23.75 15.5 23.75C14.2574 23.75 13.25 22.7426 13.25 21.5Z" fill="white"/>
<path fill-rule="evenodd" clip-rule="evenodd" d="M2.5 14.75C2.08579 14.75 1.75 15.0858 1.75 15.5C1.75 15.9142 2.08579 16.25 2.5 16.25C2.91421 16.25 3.25 15.9142 3.25 15.5C3.25 15.0858 2.91421 14.75 2.5 14.75ZM0.25 15.5C0.25 14.2574 1.25736 13.25 2.5 13.25C3.74264 13.25 4.75 14.2574 4.75 15.5C4.75 16.7426 3.74264 17.75 2.5 17.75C1.25736 17.75 0.25 16.7426 0.25 15.5Z" fill="white"/>
</g>
<defs>
<clipPath id="clip0_150_72">
<rect width="24" height="24" fill="white"/>
</clipPath>
</defs>
</svg>
